<svg xmlns="http://www.w3.org/2000/svg" viewBox="0 0 256 256" role="img" aria-label="GitHub">
  <rect width="256" height="256" fill="#ffffff" rx="0"/>
  <path fill="#0d1117" d="M128 20C68.36 20 20 68.36 20 128c0 47.73 30.94 88.24 73.84 102.55 5.4 1 7.38-2.35 7.38-5.2 0-2.56-.1-11.06-.15-20.06-30.04 6.53-36.38-12.75-36.38-12.75-4.91-12.49-12-15.81-12-15.81-9.81-6.71.74-6.58.74-6.58 10.85.76 16.56 11.14 16.56 11.14 9.64 16.52 25.28 11.75 31.44 8.99.97-6.98 3.77-11.75 6.86-14.45-23.98-2.73-49.2-11.99-49.2-53.36 0-11.79 4.22-21.43 11.13-28.98-1.12-2.73-4.82-13.72 1.06-28.6 0 0 9.07-2.9 29.72 11.07A103.53 103.53 0 0 1 128 72.32c9.17.04 18.41 1.24 27.03 3.64 20.62-13.97 29.68-11.07 29.68-11.07 5.9 14.88 2.19 25.87 1.07 28.6 6.93 7.55 11.11 17.19 11.11 28.98 0 41.47-25.26 50.6-49.31 53.27 3.87 3.35 7.32 9.94 7.32 20.03 0 14.47-.13 26.13-.13 29.68 0 2.88 1.94 6.25 7.43 5.19C205.08 216.31 236 175.81 236 128c0-59.64-48.36-108-108-108Z"/>
</svg>
